<svg xmlns="http://www.w3.org/2000/svg" width="24" height="24" fill="none" viewBox="0 0 24 24"><path fill="#000" d="M4.66882 4.82355C6.60845 3.06803 9.17839 2 12.0001 2 15.8358 2 19.2107 3.97515 21.1624 6.96854 21.4641 7.43117 22.0837 7.56168 22.5463 7.26004 23.0089 6.95839 23.1394 6.33882 22.8378 5.87619 20.5325 2.3406 16.5399 0 12.0001 0 9.00624 0 6.24839 1.01865 4.05692 2.72706L2.70722 1.37737C2.42122 1.09137 1.99111 1.00581 1.61743 1.16059 1.24376 1.31537 1.00012 1.68001 1.00012 2.08447V6.42236C1.00012 6.86492 1.29101 7.25484 1.71522 7.38092 2.13944 7.507 2.59607 7.33926 2.83779 6.96854 3.19613 6.41894 3.60269 5.90343 4.05148 5.42805 4.24925 5.21857 4.4552 5.0169 4.66882 4.82355zM14.0001 12C14.0001 13.1046 13.1047 14 12.0001 14 10.8955 14 10.0001 13.1046 10.0001 12 10.0001 10.8954 10.8955 10 12.0001 10 13.1047 10 14.0001 10.8954 14.0001 12z"/><path fill="#000" fill-rule="evenodd" d="M7.00012 7C5.34326 7 4.00012 8.34315 4.00012 10V14C4.00012 15.6569 5.34326 17 7.00012 17H17.0001C18.657 17 20.0001 15.6569 20.0001 14V10C20.0001 8.34315 18.657 7 17.0001 7H7.00012ZM6.00012 10C6.00012 9.44772 6.44783 9 7.00012 9H17.0001C17.5524 9 18.0001 9.44771 18.0001 10V14C18.0001 14.5523 17.5524 15 17.0001 15H7.00012C6.44783 15 6.00012 14.5523 6.00012 14V10Z" clip-rule="evenodd"/><path fill="#000" d="M19.3314 19.1764C17.3918 20.932 14.8218 22 12.0001 22C8.16443 22 4.78952 20.0249 2.83779 17.0315C2.53614 16.5688 1.91658 16.4383 1.45394 16.74C0.991309 17.0416 0.8608 17.6612 1.16244 18.1238C3.4677 21.6594 7.4603 24 12.0001 24C14.994 24 17.7518 22.9814 19.9433 21.2729L21.293 22.6226C21.579 22.9086 22.0091 22.9942 22.3828 22.8394C22.7565 22.6846 23.0001 22.32 23.0001 21.9155V17.5776C23.0001 17.1351 22.7092 16.7452 22.285 16.6191C21.8608 16.493 21.4042 16.6607 21.1624 17.0315C20.8041 17.5811 20.3975 18.0966 19.9487 18.572C19.751 18.7814 19.545 18.9831 19.3314 19.1764Z"/></svg>