<?xml version="1.0" standalone="no"?>
<!DOCTYPE svg PUBLIC "-//W3C//DTD SVG 20010904//EN"
 "http://www.w3.org/TR/2001/REC-SVG-20010904/DTD/svg10.dtd">
<svg version="1.0" xmlns="http://www.w3.org/2000/svg"
 width="453.000000pt" height="551.000000pt" viewBox="0 0 453.000000 551.000000"
 preserveAspectRatio="xMidYMid meet">
<metadata>
Created by potrace 1.16, written by Peter Selinger 2001-2019
</metadata>
<g transform="translate(0.000000,551.000000) scale(0.100000,-0.100000)"
fill="#000000" stroke="none">
<path d="M1189 4478 c-7 -13 -15 -25 -18 -28 -8 -6 -87 -106 -115 -144 -11
-15 -27 -36 -35 -46 -42 -50 -51 -61 -68 -87 -9 -15 -28 -38 -41 -50 -13 -13
-20 -23 -17 -23 3 0 -6 -11 -21 -25 -15 -14 -24 -25 -20 -25 4 0 -7 -15 -23
-32 -17 -18 -31 -36 -31 -39 0 -3 -10 -17 -22 -31 -13 -14 -32 -38 -43 -53
-11 -16 -26 -34 -33 -42 -7 -7 -10 -13 -6 -13 4 0 -5 -11 -20 -25 -15 -14 -25
-25 -22 -25 4 0 -2 -8 -11 -18 -10 -11 -27 -31 -37 -46 -11 -15 -27 -36 -36
-46 -9 -10 -25 -31 -36 -46 -10 -14 -29 -38 -41 -52 -13 -14 -23 -28 -23 -31
0 -3 -13 -19 -28 -36 -16 -16 -37 -43 -48 -60 -21 -33 -31 -45 -74 -92 -16
-18 -27 -33 -25 -33 5 0 -19 -30 -43 -56 -7 -8 -11 -14 -8 -14 7 0 -17 -30
-56 -71 -15 -16 -25 -29 -23 -29 5 0 -19 -30 -43 -56 -11 -12 -11 -14 2 -14
16 0 21 4 66 65 44 59 70 88 70 78 0 -4 10 10 21 32 25 47 34 54 63 48 36 -9
181 -68 184 -76 2 -4 8 -5 13 -1 5 3 9 0 9 -5 0 -6 14 -11 30 -11 17 0 30 -5
30 -11 0 -5 4 -8 9 -5 5 4 11 2 13 -4 1 -5 12 -11 23 -13 11 -2 42 -13 69 -25
27 -12 52 -22 57 -22 18 0 58 -23 53 -31 -3 -5 2 -6 10 -3 12 5 113 -31 126
-45 3 -4 15 -7 27 -8 19 -2 34 18 94 120 40 67 82 138 94 157 13 19 103 168
200 330 97 162 181 300 185 305 5 6 5 17 0 25 -6 8 -10 11 -10 7 0 -5 -6 -2
-13 5 -8 7 -26 22 -41 33 -16 11 -33 25 -40 30 -38 34 -86 72 -106 85 -13 8
-32 23 -42 33 -10 9 -18 15 -18 11 0 -3 -10 6 -22 19 -13 13 -37 32 -55 42
-18 10 -30 22 -27 27 3 4 -1 8 -8 8 -7 0 -28 13 -46 28 -32 27 -32 29 -15 49
98 115 110 133 89 133 -8 0 -21 -10 -27 -22z"/>
<path d="M4121 3089 c-13 -11 -30 -19 -37 -19 -8 0 -22 -4 -32 -10 -9 -5 -43
-21 -74 -35 -32 -14 -83 -36 -113 -50 -30 -14 -56 -24 -58 -23 -2 2 -15 -5
-30 -15 -15 -9 -27 -15 -27 -12 0 3 -10 0 -22 -7 -13 -7 -27 -11 -32 -10 -4 2
4 -18 18 -43 29 -49 59 -125 49 -125 -11 0 -77 53 -146 118 -63 59 -71 64
-100 57 -136 -30 -168 -27 -272 31 -44 25 -126 67 -182 95 l-101 50 -114 -35
c-83 -25 -139 -50 -210 -94 -121 -73 -230 -111 -357 -121 -53 -5 -101 -7 -107
-4 -8 3 -227 -62 -241 -71 -1 -1 4 -23 12 -49 8 -26 11 -47 8 -47 -3 0 -1 -6
5 -12 6 -7 11 -16 11 -20 1 -5 1 -9 2 -10 0 -2 2 -14 5 -28 2 -14 7 -32 11
-40 7 -16 12 -43 16 -75 1 -11 5 -22 9 -25 4 -3 10 -24 14 -45 3 -22 10 -45
15 -51 5 -6 6 -13 3 -17 -3 -3 14 -11 38 -17 23 -7 52 -16 63 -20 11 -4 47
-13 80 -20 33 -6 170 -41 305 -77 135 -36 319 -85 409 -109 l165 -42 55 27
c130 65 209 74 266 29 34 -27 31 -54 -10 -95 -20 -20 -34 -38 -31 -40 8 -9 67
-6 89 5 19 9 48 21 67 27 3 1 28 12 55 25 28 13 55 24 60 25 27 7 176 69 218
91 15 9 27 12 27 9 0 -4 14 3 30 15 17 12 30 18 30 15 0 -4 11 0 25 9 14 9 25
14 25 10 0 -3 11 1 25 10 14 9 25 14 25 10 0 -3 11 1 25 10 14 9 25 14 25 10
0 -3 11 1 25 10 13 9 29 16 36 16 6 0 22 9 36 20 14 11 33 20 41 20 9 0 23 7
33 16 9 8 24 16 32 18 8 1 27 10 42 20 15 10 33 19 39 20 25 4 136 79 136 92
0 8 -21 47 -47 87 -27 40 -49 78 -51 86 -2 7 -41 72 -87 143 -47 71 -85 132
-85 136 0 13 -94 161 -105 165 -6 3 -21 -4 -34 -14z"/>
<path d="M1329 1680 c-24 -16 -61 -43 -83 -60 -21 -16 -43 -27 -49 -23 -5 3
-7 2 -4 -3 3 -6 -33 -35 -81 -65 -48 -29 -101 -66 -118 -81 -38 -34 -211 -148
-224 -148 -4 0 -22 14 -39 31 -17 17 -31 28 -31 25 0 -7 -30 17 -72 56 -46 44
-78 63 -78 46 0 -7 9 -21 20 -31 11 -9 20 -14 20 -11 0 3 13 -7 28 -23 16 -15
44 -39 62 -53 18 -14 42 -33 54 -43 42 -35 109 -92 122 -105 8 -7 14 -10 14
-6 0 4 11 -5 25 -20 14 -15 25 -25 25 -22 0 3 13 -7 28 -22 16 -15 43 -38 62
-52 19 -14 46 -37 62 -52 15 -15 28 -25 28 -23 0 3 8 -3 18 -13 11 -9 17 -20
15 -24 -2 -5 2 -8 10 -8 7 0 23 -9 35 -20 12 -12 22 -19 22 -16 0 3 13 -7 29
-22 54 -50 91 -82 96 -82 5 0 35 -23 59 -46 6 -5 38 -32 71 -58 33 -27 63 -54
67 -60 4 -6 8 -8 8 -3 0 4 15 -6 33 -22 48 -44 71 -63 107 -91 18 -14 42 -33
54 -43 11 -10 34 -28 49 -40 41 -32 67 -53 112 -92 78 -67 104 -85 108 -78 7
11 -13 35 -46 56 -32 21 -52 37 -109 89 -23 21 -45 38 -49 38 -19 0 -14 29 10
57 14 16 37 45 51 63 14 18 41 51 60 73 19 22 42 48 51 58 8 10 24 30 35 45
10 15 33 42 51 61 18 18 30 33 26 33 -3 0 6 11 20 24 14 13 23 27 20 30 -4 3
-1 6 5 6 22 0 12 25 -26 65 -233 246 -706 735 -711 735 -4 0 -27 -13 -52 -30z"/>
</g>
</svg>
